<svg width="116" height="36" viewBox="0 0 116 36" fill="none" xmlns="http://www.w3.org/2000/svg">
<path d="M18.5204 0C17.1168 0 15.7507 0.160642 14.4401 0.465194C7.77547 2.00937 2.52982 7.25502 0.985641 13.919C0.681089 15.2303 0.520447 16.5964 0.520447 18C0.520447 27.9411 8.57935 36 18.5204 36C19.9241 36 21.2902 35.8394 22.6014 35.5348C29.2654 33.9906 34.5111 28.7456 36.0559 22.0823C36.3605 20.7711 36.5211 19.4043 36.5211 18C36.5211 8.0589 28.4615 0 18.5204 0ZM18.5204 29.2724C17.1918 29.2724 15.9174 29.0428 14.734 28.6205C11.5546 27.4866 9.0345 24.9665 7.90063 21.7871C7.47828 20.6037 7.24869 19.3286 7.24869 18C7.24869 11.7744 12.2949 6.72758 18.5204 6.72758C19.8491 6.72758 21.1235 6.95716 22.3069 7.37952C25.4863 8.51339 28.0071 11.0335 29.1409 14.2129C29.5633 15.3963 29.7929 16.6714 29.7929 18C29.7929 24.2256 24.746 29.2724 18.5204 29.2724Z" fill="url(#paint0_linear_84_244)"/>
<path d="M18.5204 10.7349C14.5084 10.7349 11.2554 13.9879 11.2554 17.9999C11.2554 22.012 14.5084 25.265 18.5204 25.265C22.5325 25.265 25.7855 22.012 25.7855 17.9999C25.7855 13.9879 22.5331 10.7349 18.5204 10.7349ZM18.5204 22.3928C16.0947 22.3928 14.1275 20.4263 14.1275 17.9999C14.1275 15.5736 16.0947 13.607 18.5204 13.607C20.9461 13.607 22.9133 15.5736 22.9133 17.9999C22.9133 20.4263 20.9468 22.3928 18.5204 22.3928Z" fill="#FEFCFE"/>
<path d="M22.3069 7.37966C21.1235 6.9573 19.8491 6.72772 18.5204 6.72772C12.2949 6.72772 7.24868 11.7746 7.24868 18.0001C7.24868 19.3288 7.47826 20.6039 7.90062 21.7873C6.4622 21.2438 5.11347 20.393 3.95551 19.2351C2.43609 17.7157 1.44613 15.8676 0.985626 13.9191C2.5298 7.25516 7.77545 2.00951 14.4401 0.465332C16.3879 0.925841 18.236 1.9158 19.7554 3.43521C20.9127 4.59251 21.7634 5.94124 22.3069 7.37966Z" fill="url(#paint1_linear_84_244)"/>
<path d="M36.0559 22.0824C34.5111 28.7457 29.2654 33.9907 22.6014 35.5348C20.6536 35.0743 18.8056 34.0844 17.2862 32.565C16.1282 31.407 15.2775 30.0583 14.7339 28.6205C15.9173 29.0429 17.1918 29.2725 18.5204 29.2725C24.746 29.2725 29.7928 24.2256 29.7928 18C29.7928 16.6714 29.5633 15.3963 29.1409 14.2129C30.5787 14.7564 31.9274 15.6071 33.0854 16.7651C34.6048 18.2845 35.5954 20.1339 36.0559 22.0824Z" fill="url(#paint2_linear_84_244)"/>
<path d="M9.61683 30.6713C11.6973 30.6713 13.3839 28.9848 13.3839 26.9043C13.3839 24.8238 11.6973 23.1372 9.61683 23.1372C7.53634 23.1372 5.84976 24.8238 5.84976 26.9043C5.84976 28.9848 7.53634 30.6713 9.61683 30.6713Z" fill="url(#paint3_linear_84_244)"/>
<path d="M27.4575 12.8305C29.538 12.8305 31.2246 11.1439 31.2246 9.06346C31.2246 6.98296 29.538 5.29639 27.4575 5.29639C25.377 5.29639 23.6904 6.98296 23.6904 9.06346C23.6904 11.1439 25.377 12.8305 27.4575 12.8305Z" fill="url(#paint4_linear_84_244)"/>
<path d="M115.281 14.6088V16.5974H109.009V14.6088H115.281ZM110.558 11.9951H113.129V22.2366C113.129 22.5822 113.181 22.8474 113.285 23.032C113.394 23.212 113.536 23.3351 113.711 23.4014C113.886 23.4677 114.08 23.5008 114.293 23.5008C114.454 23.5008 114.601 23.489 114.734 23.4653C114.871 23.4416 114.975 23.4203 115.046 23.4014L115.48 25.4113C115.342 25.4587 115.146 25.5107 114.89 25.5676C114.639 25.6244 114.331 25.6575 113.967 25.667C113.323 25.6859 112.743 25.5889 112.227 25.3758C111.711 25.158 111.301 24.8218 110.998 24.3673C110.7 23.9127 110.553 23.3445 110.558 22.6627V11.9951Z" fill="#D4D4D8"/>
<path d="M104.618 25.5176V14.6085H107.189V25.5176H104.618ZM105.911 13.0602C105.504 13.0602 105.153 12.9253 104.86 12.6554C104.566 12.3808 104.42 12.0517 104.42 11.6682C104.42 11.2799 104.566 10.9509 104.86 10.681C105.153 10.4064 105.504 10.269 105.911 10.269C106.323 10.269 106.673 10.4064 106.962 10.681C107.256 10.9509 107.403 11.2799 107.403 11.6682C107.403 12.0517 107.256 12.3808 106.962 12.6554C106.673 12.9253 106.323 13.0602 105.911 13.0602Z" fill="#D4D4D8"/>
<path d="M92.1344 25.5176V10.9722H94.7054V16.4125H94.812C94.9445 16.1474 95.1316 15.8656 95.373 15.5673C95.6145 15.2643 95.9412 15.0063 96.3531 14.7932C96.7651 14.5754 97.2907 14.4665 97.9299 14.4665C98.7727 14.4665 99.5326 14.6819 100.21 15.1128C100.892 15.5389 101.431 16.171 101.829 17.0091C102.231 17.8424 102.433 18.8652 102.433 20.0773C102.433 21.2752 102.236 22.2932 101.843 23.1313C101.45 23.9693 100.915 24.6085 100.238 25.0489C99.561 25.4892 98.794 25.7094 97.937 25.7094C97.312 25.7094 96.7935 25.6052 96.3816 25.3969C95.9696 25.1886 95.6382 24.9376 95.3872 24.644C95.141 24.3457 94.9493 24.064 94.812 23.7989H94.6628V25.5176H92.1344ZM94.6557 20.0631C94.6557 20.7686 94.7551 21.3865 94.954 21.9168C95.1576 22.4471 95.4488 22.8614 95.8276 23.1597C96.2111 23.4532 96.6751 23.6 97.2196 23.6C97.7878 23.6 98.2637 23.4485 98.6472 23.1455C99.0307 22.8377 99.3195 22.4187 99.5137 21.8884C99.7125 21.3533 99.812 20.7449 99.812 20.0631C99.812 19.386 99.7149 18.7847 99.5208 18.2591C99.3266 17.7335 99.0378 17.3216 98.6543 17.0233C98.2708 16.725 97.7925 16.5759 97.2196 16.5759C96.6704 16.5759 96.204 16.7203 95.8205 17.0091C95.437 17.2979 95.1458 17.7028 94.9469 18.2236C94.7528 18.7444 94.6557 19.3576 94.6557 20.0631Z" fill="#D4D4D8"/>
<path d="M84.0911 25.5175V14.6084H86.584V16.4266H86.6976C86.8965 15.7968 87.2374 15.3115 87.7203 14.9706C88.208 14.625 88.7644 14.4521 89.3894 14.4521C89.5314 14.4521 89.69 14.4593 89.8652 14.4735C90.0451 14.4829 90.1943 14.4995 90.3127 14.5232V16.8882C90.2038 16.8503 90.0309 16.8172 89.7942 16.7888C89.5622 16.7557 89.3373 16.7391 89.1195 16.7391C88.6507 16.7391 88.2293 16.8409 87.8553 17.0445C87.486 17.2433 87.1948 17.5203 86.9817 17.8754C86.7686 18.2306 86.6621 18.6401 86.6621 19.1041V25.5175H84.0911Z" fill="#D4D4D8"/>
<path d="M76.6816 25.7305C75.6163 25.7305 74.693 25.4961 73.9117 25.0274C73.1305 24.5586 72.5244 23.9029 72.0936 23.0601C71.6674 22.2173 71.4543 21.2324 71.4543 20.1055C71.4543 18.9786 71.6674 17.9914 72.0936 17.1439C72.5244 16.2963 73.1305 15.6382 73.9117 15.1694C74.693 14.7007 75.6163 14.4663 76.6816 14.4663C77.747 14.4663 78.6703 14.7007 79.4515 15.1694C80.2328 15.6382 80.8364 16.2963 81.2626 17.1439C81.6935 17.9914 81.9089 18.9786 81.9089 20.1055C81.9089 21.2324 81.6935 22.2173 81.2626 23.0601C80.8364 23.9029 80.2328 24.5586 79.4515 25.0274C78.6703 25.4961 77.747 25.7305 76.6816 25.7305ZM76.6958 23.6709C77.2735 23.6709 77.7564 23.5122 78.1447 23.195C78.5329 22.873 78.8218 22.4422 79.0112 21.9024C79.2053 21.3626 79.3024 20.7613 79.3024 20.0984C79.3024 19.4308 79.2053 18.8271 79.0112 18.2873C78.8218 17.7428 78.5329 17.3096 78.1447 16.9876C77.7564 16.6656 77.2735 16.5047 76.6958 16.5047C76.104 16.5047 75.6115 16.6656 75.2186 16.9876C74.8303 17.3096 74.5391 17.7428 74.345 18.2873C74.1556 18.8271 74.0609 19.4308 74.0609 20.0984C74.0609 20.7613 74.1556 21.3626 74.345 21.9024C74.5391 22.4422 74.8303 22.873 75.2186 23.195C75.6115 23.5122 76.104 23.6709 76.6958 23.6709Z" fill="#D4D4D8"/>
<path d="M67.7061 25.6738C67.2753 25.6738 66.9059 25.5223 66.5982 25.2192C66.2904 24.9162 66.1389 24.5469 66.1436 24.1113C66.1389 23.6851 66.2904 23.3206 66.5982 23.0175C66.9059 22.7145 67.2753 22.563 67.7061 22.563C68.1228 22.563 68.485 22.7145 68.7928 23.0175C69.1053 23.3206 69.2639 23.6851 69.2686 24.1113C69.2639 24.4001 69.1881 24.6629 69.0414 24.8996C68.8993 25.1364 68.7099 25.3258 68.4732 25.4678C68.2412 25.6051 67.9855 25.6738 67.7061 25.6738Z" fill="#D4D4D8"/>
<path d="M56.5058 19.1254V25.5174H53.9348V14.6084H56.3922V16.462H56.52C56.771 15.8513 57.1711 15.3659 57.7203 15.0061C58.2743 14.6462 58.9585 14.4663 59.7729 14.4663C60.5257 14.4663 61.1815 14.6273 61.7402 14.9493C62.3037 15.2712 62.7393 15.7376 63.047 16.3484C63.3595 16.9592 63.5134 17.7002 63.5087 18.5714V25.5174H60.9377V18.9691C60.9377 18.24 60.7483 17.6694 60.3695 17.2575C59.9954 16.8456 59.477 16.6396 58.8141 16.6396C58.3643 16.6396 57.9642 16.739 57.6138 16.9379C57.2681 17.132 56.9959 17.4138 56.797 17.7831C56.6029 18.1524 56.5058 18.5998 56.5058 19.1254Z" fill="#D4D4D8"/>
<path d="M48.72 25.5176V14.6085H51.291V25.5176H48.72ZM50.0126 13.0602C49.6054 13.0602 49.255 12.9253 48.9615 12.6554C48.6679 12.3808 48.5211 12.0517 48.5211 11.6682C48.5211 11.2799 48.6679 10.9509 48.9615 10.681C49.255 10.4064 49.6054 10.269 50.0126 10.269C50.4245 10.269 50.7749 10.4064 51.0637 10.681C51.3573 10.9509 51.5041 11.2799 51.5041 11.6682C51.5041 12.0517 51.3573 12.3808 51.0637 12.6554C50.7749 12.9253 50.4245 13.0602 50.0126 13.0602Z" fill="#D4D4D8"/>
<defs>
<linearGradient id="paint0_linear_84_244" x1="31.076" y1="6.13588" x2="6.35579" y2="29.4953" gradientUnits="userSpaceOnUse">
<stop stop-color="#F38856"/>
<stop offset="0.23" stop-color="#F0625C"/>
<stop offset="1" stop-color="#5C3DAB"/>
</linearGradient>
<linearGradient id="paint1_linear_84_244" x1="17.3812" y1="3.05168" x2="3.3203" y2="17.037" gradientUnits="userSpaceOnUse">
<stop stop-color="#F67986"/>
<stop offset="1" stop-color="#8951BA"/>
</linearGradient>
<linearGradient id="paint2_linear_84_244" x1="33.4629" y1="19.2196" x2="19.402" y2="33.2055" gradientUnits="userSpaceOnUse">
<stop stop-color="#F67986"/>
<stop offset="1" stop-color="#8951BA"/>
</linearGradient>
<linearGradient id="paint3_linear_84_244" x1="12.3672" y1="24.3306" x2="6.86583" y2="29.4779" gradientUnits="userSpaceOnUse">
<stop stop-color="#A267B9"/>
<stop offset="1" stop-color="#704BB4"/>
</linearGradient>
<linearGradient id="paint4_linear_84_244" x1="29.7473" y1="6.92022" x2="25.9916" y2="10.4349" gradientUnits="userSpaceOnUse">
<stop stop-color="#F7A8A5"/>
<stop offset="0.97" stop-color="#D074C4"/>
<stop offset="1" stop-color="#CF76A9"/>
</linearGradient>
</defs>
</svg>
